<svg width="24" height="25" viewBox="0 0 24 25" fill="none" xmlns="http://www.w3.org/2000/svg">
<path d="M8.6284 0.5C8.99746 0.634741 9.39581 0.722615 9.72973 0.921797C10.585 1.42561 11.0419 2.21062 11.0537 3.20653C11.0771 5.08705 11.0771 6.96756 11.0537 8.85393C11.0361 10.3419 9.82931 11.5429 8.34135 11.5605C6.46675 11.578 4.59215 11.578 2.71755 11.5605C1.22958 11.537 0.022808 10.3244 0.0110917 8.82464C-0.00648266 6.96756 -0.000624529 5.11048 0.0110917 3.2534C0.0169499 1.88256 0.989399 0.77534 2.33677 0.541008C2.37192 0.53515 2.40707 0.511717 2.44221 0.5C4.50428 0.5 6.56634 0.5 8.6284 0.5ZM5.55874 2.37466C4.68588 2.37466 3.80716 2.37466 2.9343 2.37466C2.23132 2.37466 1.87983 2.72029 1.87983 3.42329C1.87983 5.16321 1.87983 6.90312 1.87983 8.64889C1.87983 9.33431 2.23132 9.69167 2.91672 9.69167C4.6683 9.69167 6.41403 9.69167 8.16561 9.69167C8.83929 9.69167 9.19664 9.33431 9.19664 8.66647C9.19664 6.90898 9.19664 5.15149 9.19664 3.394C9.19664 2.73787 8.83929 2.37466 8.18904 2.37466C7.30446 2.37466 6.4316 2.37466 5.55874 2.37466Z" fill="#0354DD"/>
<path d="M24 9.07655C23.8946 9.55693 23.754 10.0256 23.4435 10.424C22.887 11.1387 22.1606 11.5429 21.2584 11.5546C19.4014 11.5722 17.5444 11.578 15.6873 11.5546C14.1877 11.537 12.9633 10.3126 12.9516 8.81292C12.934 6.95584 12.934 5.09876 12.9516 3.24168C12.9633 1.89427 13.9709 0.757765 15.2948 0.541008C15.3417 0.53515 15.3827 0.511717 15.4237 0.5C17.4565 0.5 19.4834 0.5 21.5162 0.5C21.5513 0.511717 21.5865 0.53515 21.6216 0.541008C22.3949 0.664032 23.0041 1.05654 23.4728 1.68338C23.7598 2.07002 23.8946 2.52111 24 2.98392C24 5.01675 24 7.04372 24 9.07655ZM18.4641 9.68581C19.337 9.68581 20.2157 9.68581 21.0885 9.68581C21.7446 9.68581 22.1254 9.30502 22.1254 8.65475C22.1254 6.90312 22.1254 5.15735 22.1254 3.40572C22.1254 2.75544 21.7446 2.37466 21.0885 2.37466C19.3487 2.37466 17.6029 2.37466 15.8631 2.37466C15.1953 2.37466 14.8145 2.74959 14.8145 3.41743C14.8145 5.15735 14.8145 6.90312 14.8145 8.64303C14.8145 9.31088 15.1953 9.68581 15.8631 9.68581C16.7301 9.68581 17.5971 9.68581 18.4641 9.68581Z" fill="#0354DD"/>
<path d="M23.9999 22.0117C23.8945 22.5038 23.748 22.9724 23.4258 23.3766C22.8752 24.0738 22.1605 24.478 21.2759 24.4839C19.4013 24.5014 17.5267 24.5073 15.6521 24.4839C14.1876 24.4663 12.9632 23.2478 12.9456 21.7832C12.9222 19.9027 12.9222 18.0163 12.9456 16.1358C12.9632 14.6771 14.1876 13.4527 15.6521 13.4351C17.5267 13.4117 19.4013 13.4117 21.2759 13.4351C22.5998 13.4468 23.7246 14.4427 23.9531 15.755C23.9648 15.8077 23.9824 15.8605 23.9999 15.9132C23.9999 17.9519 23.9999 19.9788 23.9999 22.0117ZM18.464 22.6209C19.3369 22.6209 20.2156 22.6209 21.0884 22.6209C21.7446 22.6209 22.1253 22.2401 22.1253 21.5899C22.1253 19.8382 22.1253 18.0925 22.1253 16.3408C22.1253 15.6906 21.7446 15.3098 21.0884 15.3098C19.3486 15.3098 17.6029 15.3098 15.863 15.3098C15.1952 15.3098 14.8144 15.6847 14.8144 16.3525C14.8144 18.0925 14.8144 19.8382 14.8144 21.5781C14.8144 22.246 15.1952 22.6209 15.863 22.6209C16.73 22.6209 17.597 22.6209 18.464 22.6209Z" fill="#0354DD"/>
<path d="M5.52943 13.4352C6.41987 13.4352 7.3103 13.4352 8.20074 13.4352C9.86445 13.441 11.0654 14.642 11.0654 16.3057C11.0654 18.0808 11.0654 19.85 11.0654 21.6251C11.0654 23.2888 9.86445 24.4956 8.20074 24.4956C6.41987 24.5015 4.639 24.5015 2.85813 24.4956C1.21199 24.4898 0.0110757 23.2888 0.00521757 21.6368C-0.000640557 19.8559 -0.000640557 18.075 0.00521757 16.294C0.0110757 14.6303 1.21199 13.4352 2.8757 13.4352C3.76028 13.4352 4.64485 13.4352 5.52943 13.4352ZM5.54115 22.621C6.41401 22.621 7.29273 22.621 8.16559 22.621C8.83927 22.621 9.19662 22.2636 9.19662 21.5958C9.19662 19.8442 9.19662 18.0984 9.19662 16.3468C9.19662 15.6613 8.84513 15.304 8.15973 15.304C6.40815 15.304 4.66243 15.304 2.91085 15.304C2.23716 15.304 1.87982 15.6613 1.87982 16.3292C1.87982 18.0867 1.87982 19.8442 1.87982 21.6016C1.87982 22.2578 2.23716 22.6151 2.89327 22.621C3.77199 22.621 4.65657 22.621 5.54115 22.621Z" fill="#0354DD"/>
</svg>
