<svg width="26" height="25" viewBox="0 0 26 25" fill="none" xmlns="http://www.w3.org/2000/svg">
<mask id="path-1-outside-1_1_471" maskUnits="userSpaceOnUse" x="0" y="-0.5" width="26" height="26" fill="black">
<rect fill="white" y="-0.5" width="26" height="26"/>
<path d="M11.9258 24.5C11.6823 24.4063 11.4201 24.3438 11.1953 24.2188C10.4523 23.8001 10.0652 23.1439 10.0527 22.2814C10.0402 21.794 10.0402 21.8002 9.60317 21.619C9.31597 21.5002 9.02251 21.3877 8.74779 21.244C8.59795 21.1628 8.50429 21.1752 8.39191 21.3002C8.02353 21.7127 7.59272 22.0189 7.03703 22.1127C6.35023 22.2314 5.72587 22.0877 5.20765 21.619C4.75186 21.2065 4.30856 20.769 3.89648 20.3128C3.14724 19.4754 3.15973 18.188 3.96516 17.3818C4.28359 17.0631 4.371 16.8131 4.12125 16.4256C3.97141 16.1944 3.89648 15.9131 3.80907 15.6444C3.75912 15.4944 3.69044 15.4444 3.52811 15.4382C3.20968 15.4257 2.87877 15.4319 2.57907 15.3382C1.69248 15.0632 1.14303 14.4383 1.04938 13.5196C0.9807 12.8071 0.9807 12.0759 1.06811 11.3697C1.19298 10.3136 2.10456 9.55738 3.16598 9.53238C3.71542 9.51988 3.71542 9.51363 3.91521 9.00742C4.02135 8.73869 4.1275 8.46996 4.26486 8.21373C4.35227 8.05749 4.31481 7.97 4.19618 7.85751C3.80907 7.50753 3.50313 7.09506 3.39699 6.56385C3.25339 5.82641 3.41572 5.16396 3.9277 4.60775C4.30856 4.21403 4.70816 3.81406 5.12024 3.43284C5.99435 2.6204 7.29302 2.6204 8.14216 3.46409C8.44186 3.75781 8.66038 3.85781 9.035 3.62033C9.2785 3.46409 9.5782 3.38284 9.85916 3.2891C10.0215 3.2391 10.0652 3.16411 10.0527 3.00787C10.0215 2.48916 10.0902 1.99545 10.3836 1.55173C10.8082 0.895531 11.4138 0.533058 12.1943 0.51431C12.8499 0.495561 13.5117 0.483062 14.1548 0.558056C15.16 0.676797 15.9654 1.60173 15.9467 2.61415C15.9342 3.09537 16.0778 3.3266 16.5399 3.43284C16.8021 3.49533 17.0456 3.63282 17.2891 3.75781C17.4327 3.83281 17.5201 3.82031 17.6263 3.70157C17.9946 3.2891 18.4254 2.97662 18.9811 2.88288C19.6679 2.76414 20.2985 2.90163 20.8168 3.36409C21.2788 3.78281 21.7283 4.22028 22.1404 4.68899C22.8959 5.53893 22.8397 6.82008 22.0343 7.67002C21.6846 8.03874 21.6909 8.03874 21.8907 8.51371C22.0155 8.80743 22.1154 9.11366 22.2466 9.40114C22.2778 9.46363 22.3714 9.53238 22.4401 9.53863C22.6649 9.56363 22.8959 9.53238 23.1144 9.56988C24.0447 9.71361 24.744 10.3761 24.9563 11.301C24.9688 11.3447 24.9875 11.3822 25 11.426C25 12.1447 25 12.8634 25 13.5821C24.9813 13.6321 24.9625 13.6821 24.9501 13.7321C24.7877 14.4008 24.4069 14.8945 23.8012 15.2194C23.3891 15.4382 22.9396 15.4819 22.4838 15.4569C22.334 15.4507 22.2653 15.4944 22.2153 15.6444C22.1217 15.9256 22.0031 16.2006 21.8969 16.4694C21.8282 16.6318 21.6784 16.8068 21.7034 16.9568C21.7283 17.1006 21.9219 17.2193 22.0468 17.3505C22.8709 18.2317 22.8896 19.5129 22.0655 20.4003C21.6909 20.8065 21.2975 21.2002 20.8917 21.5752C20.3235 22.1002 19.6492 22.2627 18.8937 22.1064C18.4192 22.0064 18.0259 21.7502 17.7137 21.3877C17.5513 21.2002 17.4202 21.1628 17.1892 21.2877C16.9207 21.4377 16.621 21.5377 16.3276 21.6502C15.9717 21.7877 15.9654 21.7815 15.9717 22.1627C15.9842 23.0064 15.6595 23.6876 14.9415 24.1375C14.6855 24.3 14.3733 24.375 14.0861 24.4937C13.3618 24.5 12.6438 24.5 11.9258 24.5ZM13.0122 1.90795C12.7687 1.90795 12.5314 1.90795 12.2879 1.90795C11.7947 1.9142 11.4638 2.23918 11.4575 2.72664C11.4513 3.05162 11.4638 3.38284 11.4575 3.70782C11.4513 4.08279 11.264 4.33277 10.9019 4.42651C10.1651 4.6265 9.47206 4.91398 8.81023 5.28895C8.45434 5.48893 8.17338 5.44519 7.87993 5.15771C7.65516 4.93898 7.44287 4.71399 7.2181 4.49526C6.84973 4.13904 6.39394 4.13904 6.03181 4.49526C5.69465 4.82648 5.35749 5.16396 5.02034 5.50768C4.66445 5.87015 4.66445 6.32637 5.02034 6.69509C5.23887 6.92008 5.46364 7.13256 5.68216 7.35754C5.97562 7.66377 6.01932 7.93875 5.80704 8.31372C5.43242 8.96992 5.14521 9.65112 4.95166 10.3698C4.83927 10.7698 4.60201 10.9448 4.18369 10.951C3.86526 10.951 3.54059 10.9448 3.22217 10.951C2.76014 10.9635 2.42923 11.2947 2.42298 11.7572C2.41674 12.2509 2.41674 12.7384 2.42298 13.2321C2.42923 13.7196 2.76014 14.0445 3.25339 14.0508C3.57181 14.057 3.89024 14.0508 4.21491 14.0508C4.60201 14.057 4.84552 14.2383 4.95166 14.6132C5.15145 15.3382 5.43866 16.0256 5.80704 16.6818C6.01308 17.0506 5.97562 17.3255 5.67592 17.6318C5.45739 17.8568 5.23262 18.0692 5.01409 18.2942C4.67069 18.6504 4.67069 19.1067 5.01409 19.4629C5.35125 19.8129 5.69465 20.1503 6.03805 20.4878C6.39394 20.8315 6.84973 20.8315 7.20561 20.4878C7.42414 20.2753 7.63643 20.0566 7.85495 19.8441C8.17962 19.5254 8.45434 19.4816 8.84145 19.7004C9.48454 20.0628 10.1589 20.3441 10.8644 20.5378C11.2765 20.6503 11.4513 20.8878 11.4513 21.3252C11.4513 21.6377 11.445 21.9502 11.4513 22.2627C11.4575 22.7376 11.7947 23.0689 12.2692 23.0751C12.75 23.0814 13.237 23.0814 13.7177 23.0751C14.211 23.0689 14.5419 22.7439 14.5481 22.2564C14.5544 21.9377 14.5481 21.619 14.5481 21.294C14.5544 20.894 14.7354 20.6503 15.1226 20.544C15.8406 20.3441 16.5211 20.0628 17.1705 19.6941C17.5513 19.4754 17.8261 19.5191 18.1382 19.8316C18.363 20.0503 18.5753 20.2753 18.8001 20.4941C19.1497 20.8253 19.6055 20.8315 19.9489 20.4941C20.3048 20.1503 20.6482 19.8066 20.9916 19.4504C21.3287 19.1067 21.3287 18.6504 20.9916 18.3005C20.7731 18.0692 20.5358 17.8505 20.3173 17.6193C20.0238 17.313 19.9801 17.0381 20.1924 16.6631C20.5545 16.0256 20.8355 15.3507 21.0353 14.6382C21.1539 14.2133 21.3849 14.0383 21.8345 14.0383C22.1404 14.0383 22.4463 14.0445 22.746 14.0383C23.233 14.032 23.564 13.7008 23.5702 13.2071C23.5764 12.7321 23.5764 12.2572 23.5702 11.776C23.564 11.2697 23.2393 10.9385 22.7398 10.9323C22.4214 10.926 22.0967 10.9385 21.7783 10.9323C21.3912 10.926 21.1477 10.7385 21.0415 10.3698C20.8417 9.64487 20.5545 8.95742 20.1861 8.30122C19.9801 7.9325 20.0238 7.65752 20.3235 7.35129C20.542 7.12631 20.7668 6.91383 20.9853 6.68884C21.3287 6.32637 21.3287 5.87016 20.9853 5.52018C20.6482 5.17646 20.3048 4.83273 19.9614 4.49526C19.6055 4.15154 19.1497 4.15154 18.7938 4.49526C18.5753 4.70774 18.363 4.92648 18.1445 5.13896C17.8198 5.45769 17.5451 5.50143 17.158 5.2827C16.5211 4.91398 15.8406 4.639 15.135 4.44526C14.7292 4.33277 14.5544 4.09529 14.5481 3.68282C14.5419 3.36409 14.5544 3.03912 14.5481 2.72039C14.5419 2.24543 14.2047 1.92045 13.7302 1.90795C13.493 1.9017 13.2495 1.90795 13.0122 1.90795Z"/>
</mask>
<path d="M11.9258 24.5C11.6823 24.4063 11.4201 24.3438 11.1953 24.2188C10.4523 23.8001 10.0652 23.1439 10.0527 22.2814C10.0402 21.794 10.0402 21.8002 9.60317 21.619C9.31597 21.5002 9.02251 21.3877 8.74779 21.244C8.59795 21.1628 8.50429 21.1752 8.39191 21.3002C8.02353 21.7127 7.59272 22.0189 7.03703 22.1127C6.35023 22.2314 5.72587 22.0877 5.20765 21.619C4.75186 21.2065 4.30856 20.769 3.89648 20.3128C3.14724 19.4754 3.15973 18.188 3.96516 17.3818C4.28359 17.0631 4.371 16.8131 4.12125 16.4256C3.97141 16.1944 3.89648 15.9131 3.80907 15.6444C3.75912 15.4944 3.69044 15.4444 3.52811 15.4382C3.20968 15.4257 2.87877 15.4319 2.57907 15.3382C1.69248 15.0632 1.14303 14.4383 1.04938 13.5196C0.9807 12.8071 0.9807 12.0759 1.06811 11.3697C1.19298 10.3136 2.10456 9.55738 3.16598 9.53238C3.71542 9.51988 3.71542 9.51363 3.91521 9.00742C4.02135 8.73869 4.1275 8.46996 4.26486 8.21373C4.35227 8.05749 4.31481 7.97 4.19618 7.85751C3.80907 7.50753 3.50313 7.09506 3.39699 6.56385C3.25339 5.82641 3.41572 5.16396 3.9277 4.60775C4.30856 4.21403 4.70816 3.81406 5.12024 3.43284C5.99435 2.6204 7.29302 2.6204 8.14216 3.46409C8.44186 3.75781 8.66038 3.85781 9.035 3.62033C9.2785 3.46409 9.5782 3.38284 9.85916 3.2891C10.0215 3.2391 10.0652 3.16411 10.0527 3.00787C10.0215 2.48916 10.0902 1.99545 10.3836 1.55173C10.8082 0.895531 11.4138 0.533058 12.1943 0.51431C12.8499 0.495561 13.5117 0.483062 14.1548 0.558056C15.16 0.676797 15.9654 1.60173 15.9467 2.61415C15.9342 3.09537 16.0778 3.3266 16.5399 3.43284C16.8021 3.49533 17.0456 3.63282 17.2891 3.75781C17.4327 3.83281 17.5201 3.82031 17.6263 3.70157C17.9946 3.2891 18.4254 2.97662 18.9811 2.88288C19.6679 2.76414 20.2985 2.90163 20.8168 3.36409C21.2788 3.78281 21.7283 4.22028 22.1404 4.68899C22.8959 5.53893 22.8397 6.82008 22.0343 7.67002C21.6846 8.03874 21.6909 8.03874 21.8907 8.51371C22.0155 8.80743 22.1154 9.11366 22.2466 9.40114C22.2778 9.46363 22.3714 9.53238 22.4401 9.53863C22.6649 9.56363 22.8959 9.53238 23.1144 9.56988C24.0447 9.71361 24.744 10.3761 24.9563 11.301C24.9688 11.3447 24.9875 11.3822 25 11.426C25 12.1447 25 12.8634 25 13.5821C24.9813 13.6321 24.9625 13.6821 24.9501 13.7321C24.7877 14.4008 24.4069 14.8945 23.8012 15.2194C23.3891 15.4382 22.9396 15.4819 22.4838 15.4569C22.334 15.4507 22.2653 15.4944 22.2153 15.6444C22.1217 15.9256 22.0031 16.2006 21.8969 16.4694C21.8282 16.6318 21.6784 16.8068 21.7034 16.9568C21.7283 17.1006 21.9219 17.2193 22.0468 17.3505C22.8709 18.2317 22.8896 19.5129 22.0655 20.4003C21.6909 20.8065 21.2975 21.2002 20.8917 21.5752C20.3235 22.1002 19.6492 22.2627 18.8937 22.1064C18.4192 22.0064 18.0259 21.7502 17.7137 21.3877C17.5513 21.2002 17.4202 21.1628 17.1892 21.2877C16.9207 21.4377 16.621 21.5377 16.3276 21.6502C15.9717 21.7877 15.9654 21.7815 15.9717 22.1627C15.9842 23.0064 15.6595 23.6876 14.9415 24.1375C14.6855 24.3 14.3733 24.375 14.0861 24.4937C13.3618 24.5 12.6438 24.5 11.9258 24.5ZM13.0122 1.90795C12.7687 1.90795 12.5314 1.90795 12.2879 1.90795C11.7947 1.9142 11.4638 2.23918 11.4575 2.72664C11.4513 3.05162 11.4638 3.38284 11.4575 3.70782C11.4513 4.08279 11.264 4.33277 10.9019 4.42651C10.1651 4.6265 9.47206 4.91398 8.81023 5.28895C8.45434 5.48893 8.17338 5.44519 7.87993 5.15771C7.65516 4.93898 7.44287 4.71399 7.2181 4.49526C6.84973 4.13904 6.39394 4.13904 6.03181 4.49526C5.69465 4.82648 5.35749 5.16396 5.02034 5.50768C4.66445 5.87015 4.66445 6.32637 5.02034 6.69509C5.23887 6.92008 5.46364 7.13256 5.68216 7.35754C5.97562 7.66377 6.01932 7.93875 5.80704 8.31372C5.43242 8.96992 5.14521 9.65112 4.95166 10.3698C4.83927 10.7698 4.60201 10.9448 4.18369 10.951C3.86526 10.951 3.54059 10.9448 3.22217 10.951C2.76014 10.9635 2.42923 11.2947 2.42298 11.7572C2.41674 12.2509 2.41674 12.7384 2.42298 13.2321C2.42923 13.7196 2.76014 14.0445 3.25339 14.0508C3.57181 14.057 3.89024 14.0508 4.21491 14.0508C4.60201 14.057 4.84552 14.2383 4.95166 14.6132C5.15145 15.3382 5.43866 16.0256 5.80704 16.6818C6.01308 17.0506 5.97562 17.3255 5.67592 17.6318C5.45739 17.8568 5.23262 18.0692 5.01409 18.2942C4.67069 18.6504 4.67069 19.1067 5.01409 19.4629C5.35125 19.8129 5.69465 20.1503 6.03805 20.4878C6.39394 20.8315 6.84973 20.8315 7.20561 20.4878C7.42414 20.2753 7.63643 20.0566 7.85495 19.8441C8.17962 19.5254 8.45434 19.4816 8.84145 19.7004C9.48454 20.0628 10.1589 20.3441 10.8644 20.5378C11.2765 20.6503 11.4513 20.8878 11.4513 21.3252C11.4513 21.6377 11.445 21.9502 11.4513 22.2627C11.4575 22.7376 11.7947 23.0689 12.2692 23.0751C12.75 23.0814 13.237 23.0814 13.7177 23.0751C14.211 23.0689 14.5419 22.7439 14.5481 22.2564C14.5544 21.9377 14.5481 21.619 14.5481 21.294C14.5544 20.894 14.7354 20.6503 15.1226 20.544C15.8406 20.3441 16.5211 20.0628 17.1705 19.6941C17.5513 19.4754 17.8261 19.5191 18.1382 19.8316C18.363 20.0503 18.5753 20.2753 18.8001 20.4941C19.1497 20.8253 19.6055 20.8315 19.9489 20.4941C20.3048 20.1503 20.6482 19.8066 20.9916 19.4504C21.3287 19.1067 21.3287 18.6504 20.9916 18.3005C20.7731 18.0692 20.5358 17.8505 20.3173 17.6193C20.0238 17.313 19.9801 17.0381 20.1924 16.6631C20.5545 16.0256 20.8355 15.3507 21.0353 14.6382C21.1539 14.2133 21.3849 14.0383 21.8345 14.0383C22.1404 14.0383 22.4463 14.0445 22.746 14.0383C23.233 14.032 23.564 13.7008 23.5702 13.2071C23.5764 12.7321 23.5764 12.2572 23.5702 11.776C23.564 11.2697 23.2393 10.9385 22.7398 10.9323C22.4214 10.926 22.0967 10.9385 21.7783 10.9323C21.3912 10.926 21.1477 10.7385 21.0415 10.3698C20.8417 9.64487 20.5545 8.95742 20.1861 8.30122C19.9801 7.9325 20.0238 7.65752 20.3235 7.35129C20.542 7.12631 20.7668 6.91383 20.9853 6.68884C21.3287 6.32637 21.3287 5.87016 20.9853 5.52018C20.6482 5.17646 20.3048 4.83273 19.9614 4.49526C19.6055 4.15154 19.1497 4.15154 18.7938 4.49526C18.5753 4.70774 18.363 4.92648 18.1445 5.13896C17.8198 5.45769 17.5451 5.50143 17.158 5.2827C16.5211 4.91398 15.8406 4.639 15.135 4.44526C14.7292 4.33277 14.5544 4.09529 14.5481 3.68282C14.5419 3.36409 14.5544 3.03912 14.5481 2.72039C14.5419 2.24543 14.2047 1.92045 13.7302 1.90795C13.493 1.9017 13.2495 1.90795 13.0122 1.90795Z" fill="#0354DD"/>
<path d="M11.9258 24.5C11.6823 24.4063 11.4201 24.3438 11.1953 24.2188C10.4523 23.8001 10.0652 23.1439 10.0527 22.2814C10.0402 21.794 10.0402 21.8002 9.60317 21.619C9.31597 21.5002 9.02251 21.3877 8.74779 21.244C8.59795 21.1628 8.50429 21.1752 8.39191 21.3002C8.02353 21.7127 7.59272 22.0189 7.03703 22.1127C6.35023 22.2314 5.72587 22.0877 5.20765 21.619C4.75186 21.2065 4.30856 20.769 3.89648 20.3128C3.14724 19.4754 3.15973 18.188 3.96516 17.3818C4.28359 17.0631 4.371 16.8131 4.12125 16.4256C3.97141 16.1944 3.89648 15.9131 3.80907 15.6444C3.75912 15.4944 3.69044 15.4444 3.52811 15.4382C3.20968 15.4257 2.87877 15.4319 2.57907 15.3382C1.69248 15.0632 1.14303 14.4383 1.04938 13.5196C0.9807 12.8071 0.9807 12.0759 1.06811 11.3697C1.19298 10.3136 2.10456 9.55738 3.16598 9.53238C3.71542 9.51988 3.71542 9.51363 3.91521 9.00742C4.02135 8.73869 4.1275 8.46996 4.26486 8.21373C4.35227 8.05749 4.31481 7.97 4.19618 7.85751C3.80907 7.50753 3.50313 7.09506 3.39699 6.56385C3.25339 5.82641 3.41572 5.16396 3.9277 4.60775C4.30856 4.21403 4.70816 3.81406 5.12024 3.43284C5.99435 2.6204 7.29302 2.6204 8.14216 3.46409C8.44186 3.75781 8.66038 3.85781 9.035 3.62033C9.2785 3.46409 9.5782 3.38284 9.85916 3.2891C10.0215 3.2391 10.0652 3.16411 10.0527 3.00787C10.0215 2.48916 10.0902 1.99545 10.3836 1.55173C10.8082 0.895531 11.4138 0.533058 12.1943 0.51431C12.8499 0.495561 13.5117 0.483062 14.1548 0.558056C15.16 0.676797 15.9654 1.60173 15.9467 2.61415C15.9342 3.09537 16.0778 3.3266 16.5399 3.43284C16.8021 3.49533 17.0456 3.63282 17.2891 3.75781C17.4327 3.83281 17.5201 3.82031 17.6263 3.70157C17.9946 3.2891 18.4254 2.97662 18.9811 2.88288C19.6679 2.76414 20.2985 2.90163 20.8168 3.36409C21.2788 3.78281 21.7283 4.22028 22.1404 4.68899C22.8959 5.53893 22.8397 6.82008 22.0343 7.67002C21.6846 8.03874 21.6909 8.03874 21.8907 8.51371C22.0155 8.80743 22.1154 9.11366 22.2466 9.40114C22.2778 9.46363 22.3714 9.53238 22.4401 9.53863C22.6649 9.56363 22.8959 9.53238 23.1144 9.56988C24.0447 9.71361 24.744 10.3761 24.9563 11.301C24.9688 11.3447 24.9875 11.3822 25 11.426C25 12.1447 25 12.8634 25 13.5821C24.9813 13.6321 24.9625 13.6821 24.9501 13.7321C24.7877 14.4008 24.4069 14.8945 23.8012 15.2194C23.3891 15.4382 22.9396 15.4819 22.4838 15.4569C22.334 15.4507 22.2653 15.4944 22.2153 15.6444C22.1217 15.9256 22.0031 16.2006 21.8969 16.4694C21.8282 16.6318 21.6784 16.8068 21.7034 16.9568C21.7283 17.1006 21.9219 17.2193 22.0468 17.3505C22.8709 18.2317 22.8896 19.5129 22.0655 20.4003C21.6909 20.8065 21.2975 21.2002 20.8917 21.5752C20.3235 22.1002 19.6492 22.2627 18.8937 22.1064C18.4192 22.0064 18.0259 21.7502 17.7137 21.3877C17.5513 21.2002 17.4202 21.1628 17.1892 21.2877C16.9207 21.4377 16.621 21.5377 16.3276 21.6502C15.9717 21.7877 15.9654 21.7815 15.9717 22.1627C15.9842 23.0064 15.6595 23.6876 14.9415 24.1375C14.6855 24.3 14.3733 24.375 14.0861 24.4937C13.3618 24.5 12.6438 24.5 11.9258 24.5ZM13.0122 1.90795C12.7687 1.90795 12.5314 1.90795 12.2879 1.90795C11.7947 1.9142 11.4638 2.23918 11.4575 2.72664C11.4513 3.05162 11.4638 3.38284 11.4575 3.70782C11.4513 4.08279 11.264 4.33277 10.9019 4.42651C10.1651 4.6265 9.47206 4.91398 8.81023 5.28895C8.45434 5.48893 8.17338 5.44519 7.87993 5.15771C7.65516 4.93898 7.44287 4.71399 7.2181 4.49526C6.84973 4.13904 6.39394 4.13904 6.03181 4.49526C5.69465 4.82648 5.35749 5.16396 5.02034 5.50768C4.66445 5.87015 4.66445 6.32637 5.02034 6.69509C5.23887 6.92008 5.46364 7.13256 5.68216 7.35754C5.97562 7.66377 6.01932 7.93875 5.80704 8.31372C5.43242 8.96992 5.14521 9.65112 4.95166 10.3698C4.83927 10.7698 4.60201 10.9448 4.18369 10.951C3.86526 10.951 3.54059 10.9448 3.22217 10.951C2.76014 10.9635 2.42923 11.2947 2.42298 11.7572C2.41674 12.2509 2.41674 12.7384 2.42298 13.2321C2.42923 13.7196 2.76014 14.0445 3.25339 14.0508C3.57181 14.057 3.89024 14.0508 4.21491 14.0508C4.60201 14.057 4.84552 14.2383 4.95166 14.6132C5.15145 15.3382 5.43866 16.0256 5.80704 16.6818C6.01308 17.0506 5.97562 17.3255 5.67592 17.6318C5.45739 17.8568 5.23262 18.0692 5.01409 18.2942C4.67069 18.6504 4.67069 19.1067 5.01409 19.4629C5.35125 19.8129 5.69465 20.1503 6.03805 20.4878C6.39394 20.8315 6.84973 20.8315 7.20561 20.4878C7.42414 20.2753 7.63643 20.0566 7.85495 19.8441C8.17962 19.5254 8.45434 19.4816 8.84145 19.7004C9.48454 20.0628 10.1589 20.3441 10.8644 20.5378C11.2765 20.6503 11.4513 20.8878 11.4513 21.3252C11.4513 21.6377 11.445 21.9502 11.4513 22.2627C11.4575 22.7376 11.7947 23.0689 12.2692 23.0751C12.75 23.0814 13.237 23.0814 13.7177 23.0751C14.211 23.0689 14.5419 22.7439 14.5481 22.2564C14.5544 21.9377 14.5481 21.619 14.5481 21.294C14.5544 20.894 14.7354 20.6503 15.1226 20.544C15.8406 20.3441 16.5211 20.0628 17.1705 19.6941C17.5513 19.4754 17.8261 19.5191 18.1382 19.8316C18.363 20.0503 18.5753 20.2753 18.8001 20.4941C19.1497 20.8253 19.6055 20.8315 19.9489 20.4941C20.3048 20.1503 20.6482 19.8066 20.9916 19.4504C21.3287 19.1067 21.3287 18.6504 20.9916 18.3005C20.7731 18.0692 20.5358 17.8505 20.3173 17.6193C20.0238 17.313 19.9801 17.0381 20.1924 16.6631C20.5545 16.0256 20.8355 15.3507 21.0353 14.6382C21.1539 14.2133 21.3849 14.0383 21.8345 14.0383C22.1404 14.0383 22.4463 14.0445 22.746 14.0383C23.233 14.032 23.564 13.7008 23.5702 13.2071C23.5764 12.7321 23.5764 12.2572 23.5702 11.776C23.564 11.2697 23.2393 10.9385 22.7398 10.9323C22.4214 10.926 22.0967 10.9385 21.7783 10.9323C21.3912 10.926 21.1477 10.7385 21.0415 10.3698C20.8417 9.64487 20.5545 8.95742 20.1861 8.30122C19.9801 7.9325 20.0238 7.65752 20.3235 7.35129C20.542 7.12631 20.7668 6.91383 20.9853 6.68884C21.3287 6.32637 21.3287 5.87016 20.9853 5.52018C20.6482 5.17646 20.3048 4.83273 19.9614 4.49526C19.6055 4.15154 19.1497 4.15154 18.7938 4.49526C18.5753 4.70774 18.363 4.92648 18.1445 5.13896C17.8198 5.45769 17.5451 5.50143 17.158 5.2827C16.5211 4.91398 15.8406 4.639 15.135 4.44526C14.7292 4.33277 14.5544 4.09529 14.5481 3.68282C14.5419 3.36409 14.5544 3.03912 14.5481 2.72039C14.5419 2.24543 14.2047 1.92045 13.7302 1.90795C13.493 1.9017 13.2495 1.90795 13.0122 1.90795Z" stroke="#0354DD" stroke-width="0.7" mask="url(#path-1-outside-1_1_471)"/>
<path d="M13.006 17.8943C15.981 17.8943 18.388 15.4849 18.3882 12.5075L18.3882 12.5072C18.3945 9.5236 15.9939 7.11401 13.0127 7.11381C10.0433 7.10109 7.63049 9.50462 7.61759 12.4877C7.60468 15.4658 10.0247 17.8943 13.006 17.8943ZM12.9946 16.1319L12.9941 16.1319C10.9865 16.1259 9.36645 14.4983 9.37241 12.4889C9.37837 10.4791 11.0047 8.85774 13.0118 8.8637C15.0193 8.86966 16.6394 10.4973 16.6334 12.5066C16.6275 14.523 15.001 16.1438 12.9946 16.1319Z" fill="#0354DD" stroke="#0354DD" stroke-width="0.35"/>
</svg>
