<svg width="24" height="25" viewBox="0 0 24 25" fill="none" xmlns="http://www.w3.org/2000/svg">
<path d="M2.1682 24.4972C1.7792 24.4972 1.38392 24.5035 0.994909 24.4972C0.467868 24.4847 0.0161182 24.0957 0.00984394 23.5813C-0.00270467 22.6654 -0.0152533 21.7432 0.053764 20.8335C0.13533 19.7545 0.612177 18.8198 1.34627 18.0231C1.40901 17.9541 1.47803 17.885 1.54077 17.8223C6.93667 12.4272 12.3326 7.03207 17.7285 1.64322C18.9645 0.413629 20.7213 0.150147 22.1707 0.978235C24.2161 2.13254 24.6239 4.91166 22.9989 6.63684C22.9173 6.72467 22.8358 6.80622 22.7479 6.88778C17.4461 12.1888 12.1381 17.4773 6.84883 22.7908C5.70064 23.9451 4.35794 24.5537 2.72662 24.4909C2.54466 24.4909 2.35643 24.4972 2.1682 24.4972ZM1.98625 22.4834C2.31879 22.4834 2.58858 22.4772 2.86465 22.4834C3.84972 22.5211 4.65283 22.151 5.34928 21.4546C9.36483 17.4271 13.3929 13.4121 17.4148 9.39714C17.4712 9.34068 17.5402 9.30304 17.5842 9.27794C16.7873 8.48122 16.0219 7.71587 15.2564 6.95051C15.2438 6.95679 15.2125 6.98188 15.1874 7.00697C11.0777 11.116 6.96805 15.2251 2.86465 19.3342C2.438 19.7608 2.14938 20.2752 2.07409 20.8775C2.00507 21.3981 2.01135 21.9251 1.98625 22.4834ZM16.7309 5.48881C17.49 6.24789 18.243 7.00697 19.0022 7.77233C19.0147 7.76605 19.0273 7.76605 19.0398 7.75978C19.8931 6.9066 20.759 6.07224 21.5934 5.19396C22.177 4.57289 22.1205 3.5817 21.5182 2.97945C20.9095 2.3772 19.9245 2.32074 19.3033 2.91044C18.4249 3.7448 17.5842 4.62935 16.7309 5.48881Z" fill="#0354DD"/>
</svg>
