<svg width="36" height="36" viewBox="0 0 36 36" fill="none" xmlns="http://www.w3.org/2000/svg">
<path d="M24.8063 12.8883C24.8063 9.13359 21.7548 6.08203 18.0001 6.08203C14.2454 6.08203 11.1938 9.13359 11.1938 12.8883C11.1938 16.643 14.2454 19.6945 18.0001 19.6945C21.7548 19.6945 24.8063 16.643 24.8063 12.8883ZM12.6142 12.8883C12.6142 9.92109 15.0329 7.50234 18.0001 7.50234C20.9673 7.50234 23.386 9.92109 23.386 12.8883C23.386 15.8555 20.9673 18.2742 18.0001 18.2742C15.0329 18.2742 12.6142 15.8625 12.6142 12.8883Z" fill="#28C201"/>
<path d="M25.8961 19.132L27.0844 18.6328C27.3797 18.5063 27.5554 18.2039 27.5133 17.8875L27.1969 15.3563L28.7367 13.3172C28.9265 13.0641 28.9265 12.7125 28.7367 12.4594L27.1969 10.4203L27.5133 7.88203C27.5554 7.56563 27.3797 7.26328 27.0844 7.13672L24.7289 6.14532L23.7375 3.78985C23.6109 3.49453 23.3086 3.31875 22.9922 3.36094L20.4609 3.67735L18.4219 2.1375C18.298 2.04506 18.1475 1.99512 17.9929 1.99512C17.8384 1.99512 17.6879 2.04506 17.564 2.1375L15.525 3.67735L12.9937 3.36094C12.6773 3.31875 12.375 3.49453 12.2484 3.78985L11.257 6.14532L8.90154 7.13672C8.60623 7.26328 8.43045 7.56563 8.47263 7.88203L8.78904 10.4203L7.2492 12.4594C7.15675 12.5833 7.10681 12.7337 7.10681 12.8883C7.10681 13.0429 7.15675 13.1933 7.2492 13.3172L8.78904 15.3563L8.47263 17.8875C8.43045 18.2039 8.60623 18.5063 8.90154 18.6328L10.0898 19.132L4.38748 30.0023C4.24685 30.2766 4.29607 30.607 4.50701 30.832C4.72498 31.05 5.05545 31.1063 5.32967 30.9656L9.33748 28.9406L9.91404 33.3703C9.95623 33.6797 10.1883 33.9258 10.4906 33.975C10.5328 33.982 10.575 33.9891 10.6172 33.9891C10.8773 33.9891 11.1234 33.8484 11.2429 33.6094L16.7976 23.0484L17.564 23.632C17.6906 23.7305 17.8383 23.7727 17.9929 23.7727C18.1406 23.7727 18.2953 23.7234 18.4219 23.632L19.1883 23.0484L24.7429 33.6094C24.8695 33.8484 25.1086 33.9891 25.3687 33.9891C25.4109 33.9891 25.4531 33.9891 25.4953 33.975C25.7976 33.9188 26.0367 33.6727 26.0719 33.3703L26.6484 28.9406L30.6562 30.9656C30.9304 31.1063 31.2679 31.05 31.4789 30.832C31.6969 30.6141 31.7461 30.2766 31.5984 30.0023L25.8961 19.132ZM11.039 30.9727L10.6242 27.7734C10.5961 27.5484 10.4554 27.3445 10.2515 27.2391C10.0476 27.1336 9.80857 27.1266 9.59763 27.232L6.67263 28.7086L11.3484 19.8141L12.2554 21.9797C12.382 22.275 12.6844 22.4508 13.0008 22.4086L15.532 22.0922L15.6586 22.1836L11.039 30.9727ZM18 22.1766L17.0226 21.4383C17.0156 21.4313 17.0015 21.4242 16.9945 21.4172L16.1578 20.7844C16.0312 20.693 15.8836 20.6438 15.7289 20.6438C15.7008 20.6438 15.6726 20.6438 15.6375 20.6508L13.3523 20.9391L12.4594 18.8156C12.389 18.6469 12.2484 18.5063 12.0797 18.4359L9.95623 17.543L10.2445 15.2578C10.2656 15.075 10.2164 14.8922 10.1039 14.7445L8.71873 12.8883L10.1109 11.0461C10.2234 10.8984 10.2726 10.7156 10.2515 10.5328L9.96326 8.24766L12.0867 7.35469C12.2554 7.28438 12.3961 7.14375 12.4664 6.975L13.3594 4.85157L15.6445 5.13985C15.8273 5.16094 16.0101 5.11172 16.1578 4.99922L18 3.60703L19.8422 4.99922C19.9898 5.11172 20.1726 5.16094 20.3554 5.13985L22.6406 4.85157L23.5336 6.975C23.6039 7.14375 23.7445 7.28438 23.9133 7.35469L26.0367 8.24766L25.7484 10.5328C25.7273 10.7156 25.7765 10.8984 25.889 11.0461L27.2812 12.8883L25.889 14.7305C25.7765 14.8781 25.7273 15.0609 25.7484 15.2438L26.0367 17.5289L23.9133 18.4219C23.7445 18.4922 23.6039 18.6328 23.5336 18.8016L22.6406 20.932L20.3554 20.6438C20.1726 20.6156 19.9898 20.6719 19.8422 20.7844L19.0054 21.4172C18.9984 21.4242 18.9914 21.4313 18.9773 21.4383L18 22.1766ZM26.4023 27.225C26.1984 27.1195 25.9523 27.1266 25.7484 27.232C25.5445 27.3375 25.4039 27.5414 25.3758 27.7664L24.9609 30.9656L20.3414 22.1766L20.4679 22.0852L22.9992 22.4016C23.3156 22.4438 23.6179 22.268 23.7445 21.9727L24.6515 19.807L29.3273 28.7016L26.4023 27.225Z" fill="#28C201"/>
</svg>
